<?xml version="1.0" encoding="UTF-8"?>
<svg width="155px" height="30px" viewBox="0 0 155 30" version="1.1" xmlns="http://www.w3.org/2000/svg" xmlns:xlink="http://www.w3.org/1999/xlink">
    <!-- Generator: Sketch 61.2 (89653) - https://sketch.com -->
    <title>Elements/Logo/BCBST/Blue</title>
    <desc>Created with Sketch.</desc>
    <g id="Elements/Logo/BCBST/Blue" stroke="none" stroke-width="1" fill="none" fill-rule="evenodd">
        <path d="M70.66,26.2669 C70.66,28.7099 68.805,30.1479 66.815,30.1479 C64.65,30.1479 63.075,28.5089 63.075,26.2049 C63.075,23.7769 64.754,22.3239 66.786,22.2929 C69.173,22.2469 70.66,24.0239 70.66,26.2669 M65.314,25.8959 C65.314,28.3229 65.461,29.7149 66.875,29.7149 C68.304,29.7149 68.406,28.3079 68.406,26.2669 C68.406,24.3959 68.318,22.6789 66.859,22.6949 C65.49,22.6949 65.314,24.1639 65.314,25.8959" id="Fill-1" fill="#222222"></path>
        <path d="M75.7548,20.1281 C75.7548,19.7101 75.5938,19.3241 75.1078,19.3241 C74.4298,19.3241 74.4298,20.0351 74.4298,20.6691 L74.4298,22.4941 L75.6378,22.4941 L75.6378,22.8961 L74.4298,22.8961 L74.4298,28.1381 L74.4588,29.5761 L75.6378,29.5761 L75.6378,29.9781 L71.2638,29.9781 L71.2638,29.5761 L72.3378,29.5761 L72.3678,28.1381 L72.3678,22.8961 L71.2638,22.8961 L71.2638,22.4941 L72.3678,22.4941 L72.3678,21.7981 C72.3828,20.9321 72.3828,19.8191 73.4728,19.2461 C74.0028,18.9691 74.5918,18.8911 75.1808,18.8911 C77.1988,18.8911 77.5968,19.9741 77.5968,20.6071 C77.5968,20.8541 77.5528,21.5821 76.6388,21.5821 C75.7408,21.5821 75.7408,20.8541 75.7408,20.7001 L75.7548,20.1281 Z" id="Fill-3" fill="#222222"></path>
        <path d="M81.2626,19.0612 L91.4406,19.0612 L91.4406,22.7722 L91.0136,22.7722 C90.9686,22.2462 90.9096,21.6902 90.3206,20.7772 C89.5556,19.6182 88.9076,19.5872 88.1996,19.5552 L87.5226,19.5552 L87.4926,20.9012 L87.4926,28.1222 L87.5226,29.5762 L88.9506,29.5762 L88.9506,29.9782 L83.7376,29.9782 L83.7376,29.5762 L85.1516,29.5762 L85.1806,28.1222 L85.1806,20.9012 L85.1516,19.5552 L84.4446,19.5552 C84.1346,19.5552 83.6336,19.6332 83.1776,19.9272 C82.5736,20.2982 82.2356,20.8242 82.0296,21.2102 C81.7046,21.8602 81.7046,22.2772 81.6896,22.7722 L81.2626,22.7722 L81.2626,19.0612 Z" id="Fill-5" fill="#222222"></path>
        <path d="M97.6991,27.8132 C97.3161,28.5712 96.5211,30.1482 94.2971,30.1482 C92.0131,30.1482 90.6151,28.3072 90.6151,26.1582 C90.6151,24.1012 91.9401,22.2772 94.3111,22.2772 C95.7851,22.2772 96.5951,22.9422 96.9481,23.3292 C97.7581,24.2102 97.7881,25.1382 97.8021,25.8022 L92.8831,25.8022 C92.8971,27.1172 92.9271,28.3072 93.5461,28.9882 C93.8851,29.3602 94.3711,29.5142 94.8561,29.5142 C96.4471,29.5142 97.0511,28.1072 97.2571,27.6122 L97.6991,27.8132 Z M95.5491,25.3392 C95.5631,24.1332 95.5781,22.7102 94.2531,22.7102 C93.0011,22.7102 92.9421,24.0252 92.8971,25.3392 L95.5491,25.3392 Z" id="Fill-7" fill="#222222"></path>
        <path d="M106.0643,29.5759 L107.0803,29.5759 L107.0803,29.9779 L102.8533,29.9779 L102.8533,29.5759 L103.8993,29.5759 L103.9283,28.3699 L103.9283,24.3949 C103.9143,23.9159 103.8993,23.0189 102.9273,23.0189 C102.5593,23.0189 102.1463,23.1749 101.8363,23.4829 C101.2183,24.1179 101.2043,25.1229 101.1743,26.1119 L101.1743,28.3699 L101.2043,29.5759 L102.2353,29.5759 L102.2353,29.9779 L97.9783,29.9779 L97.9783,29.5759 L99.0533,29.5759 L99.0833,28.3699 L99.0833,24.0249 L99.0533,22.9109 L97.9783,22.9109 L97.9783,22.5099 L99.4963,22.5099 C100.2913,22.4939 100.4973,22.4939 101.2043,22.4469 L101.1743,23.8079 C101.3663,23.4069 101.5133,23.0969 101.9403,22.7869 C102.3683,22.4939 102.9703,22.2779 103.7523,22.2779 C104.2823,22.2779 104.6213,22.3859 104.8273,22.4629 C105.9603,22.9109 106.0043,23.9159 106.0353,24.5659 L106.0353,28.3699 L106.0643,29.5759 Z" id="Fill-9" fill="#222222"></path>
        <path d="M115.5927,29.5759 L116.6087,29.5759 L116.6087,29.9779 L112.3827,29.9779 L112.3827,29.5759 L113.4277,29.5759 L113.4577,28.3699 L113.4577,24.3949 C113.4427,23.9159 113.4277,23.0189 112.4557,23.0189 C112.0867,23.0189 111.6757,23.1749 111.3657,23.4829 C110.7467,24.1179 110.7337,25.1229 110.7027,26.1119 L110.7027,28.3699 L110.7337,29.5759 L111.7637,29.5759 L111.7637,29.9779 L107.5077,29.9779 L107.5077,29.5759 L108.5817,29.5759 L108.6127,28.3699 L108.6127,24.0249 L108.5817,22.9109 L107.5077,22.9109 L107.5077,22.5099 L109.0247,22.5099 C109.8197,22.4939 110.0267,22.4939 110.7337,22.4469 L110.7027,23.8079 C110.8957,23.4069 111.0417,23.0969 111.4687,22.7869 C111.8957,22.4939 112.4997,22.2779 113.2797,22.2779 C113.8117,22.2779 114.1497,22.3859 114.3567,22.4629 C115.4897,22.9109 115.5337,23.9159 115.5637,24.5659 L115.5637,28.3699 L115.5927,29.5759 Z" id="Fill-11" fill="#222222"></path>
        <path d="M124.1522,27.8132 C123.7692,28.5712 122.9742,30.1482 120.7502,30.1482 C118.4662,30.1482 117.0682,28.3072 117.0682,26.1582 C117.0682,24.1012 118.3932,22.2772 120.7642,22.2772 C122.2382,22.2772 123.0482,22.9422 123.4012,23.3292 C124.2112,24.2102 124.2412,25.1382 124.2552,25.8022 L119.3362,25.8022 C119.3502,27.1172 119.3802,28.3072 119.9992,28.9882 C120.3382,29.3602 120.8242,29.5142 121.3092,29.5142 C122.9002,29.5142 123.5042,28.1072 123.7102,27.6122 L124.1522,27.8132 Z M122.0032,25.3392 C122.0162,24.1332 122.0312,22.7102 120.7062,22.7102 C119.4542,22.7102 119.3952,24.0252 119.3502,25.3392 L122.0032,25.3392 Z" id="Fill-13" fill="#222222"></path>
        <path d="M125.5477,27.1328 C125.6077,27.5808 125.6517,27.9518 125.8867,28.4158 C126.1227,28.9118 126.7257,29.6838 127.7727,29.6838 C128.6417,29.6838 129.2157,29.1738 129.2157,28.5548 C129.2157,27.8588 128.5677,27.5808 127.6247,27.2258 C126.3147,26.7148 125.2097,26.2978 125.2097,24.6588 C125.2097,22.7098 126.8297,22.2618 127.8457,22.2618 C128.6547,22.2618 129.3187,22.5088 130.0107,22.7568 L130.0397,24.7668 L129.5977,24.7668 C129.5397,24.4578 129.4807,24.1788 129.3767,23.9318 C129.1867,23.5148 128.6257,22.7728 127.6837,22.7728 C126.8877,22.7728 126.5347,23.3288 126.5347,23.7158 C126.5347,24.1948 126.9177,24.3958 127.0787,24.4738 C127.3157,24.5818 128.4797,25.0298 128.7437,25.1378 C129.6427,25.5248 130.5697,26.0498 130.5697,27.4728 C130.5697,29.0958 129.3617,30.1638 127.5947,30.1638 C126.6227,30.1638 125.8867,29.8848 125.1207,29.5918 L125.0917,27.1328 L125.5477,27.1328 Z" id="Fill-15" fill="#222222"></path>
        <path d="M131.8954,27.1328 C131.9554,27.5808 131.9994,27.9518 132.2344,28.4158 C132.4704,28.9118 133.0734,29.6838 134.1204,29.6838 C134.9894,29.6838 135.5634,29.1738 135.5634,28.5548 C135.5634,27.8588 134.9154,27.5808 133.9714,27.2258 C132.6624,26.7148 131.5574,26.2978 131.5574,24.6588 C131.5574,22.7098 133.1774,22.2618 134.1934,22.2618 C135.0024,22.2618 135.6664,22.5088 136.3584,22.7568 L136.3874,24.7668 L135.9454,24.7668 C135.8874,24.4578 135.8284,24.1788 135.7244,23.9318 C135.5344,23.5148 134.9734,22.7728 134.0314,22.7728 C133.2364,22.7728 132.8814,23.3288 132.8814,23.7158 C132.8814,24.1948 133.2644,24.3958 133.4264,24.4738 C133.6634,24.5818 134.8274,25.0298 135.0914,25.1378 C135.9904,25.5248 136.9174,26.0498 136.9174,27.4728 C136.9174,29.0958 135.7094,30.1638 133.9424,30.1638 C132.9704,30.1638 132.2344,29.8848 131.4684,29.5918 L131.4394,27.1328 L131.8954,27.1328 Z" id="Fill-18" fill="#222222"></path>
        <path d="M144.7528,27.8132 C144.3698,28.5712 143.5748,30.1482 141.3508,30.1482 C139.0668,30.1482 137.6688,28.3072 137.6688,26.1582 C137.6688,24.1012 138.9938,22.2772 141.3648,22.2772 C142.8378,22.2772 143.6488,22.9422 144.0018,23.3292 C144.8118,24.2102 144.8418,25.1382 144.8558,25.8022 L139.9368,25.8022 C139.9508,27.1172 139.9808,28.3072 140.5998,28.9882 C140.9388,29.3602 141.4238,29.5142 141.9098,29.5142 C143.5008,29.5142 144.1048,28.1072 144.3108,27.6122 L144.7528,27.8132 Z M142.6028,25.3392 C142.6168,24.1332 142.6318,22.7102 141.3058,22.7102 C140.0548,22.7102 139.9958,24.0252 139.9508,25.3392 L142.6028,25.3392 Z" id="Fill-21" fill="#222222"></path>
        <path d="M152.411,27.8132 C152.028,28.5712 151.233,30.1482 149.009,30.1482 C146.725,30.1482 145.327,28.3072 145.327,26.1582 C145.327,24.1012 146.652,22.2772 149.023,22.2772 C150.497,22.2772 151.307,22.9422 151.66,23.3292 C152.47,24.2102 152.5,25.1382 152.514,25.8022 L147.595,25.8022 C147.609,27.1172 147.639,28.3072 148.258,28.9882 C148.597,29.3602 149.082,29.5142 149.568,29.5142 C151.159,29.5142 151.763,28.1072 151.969,27.6122 L152.411,27.8132 Z M150.261,25.3392 C150.275,24.1332 150.29,22.7102 148.965,22.7102 C147.713,22.7102 147.654,24.0252 147.609,25.3392 L150.261,25.3392 Z" id="Fill-23" fill="#222222"></path>
        <g id="Group-27" transform="translate(36.000000, -0.836500)" fill="#FFFFFF">
            <path d="M22.7665,0.8526 C19.5405,2.4806 16.3245,3.3536 12.5515,3.3656 C8.7795,3.3756 5.5625,2.4626 2.3365,0.8366 C0.2145,5.0056 -0.1175,11.7826 1.7125,17.4426 C3.4795,22.8956 6.9035,27.8616 12.5515,30.9836 C18.2015,27.8616 21.6245,22.8956 23.3895,17.4426 C25.2215,11.7826 24.8855,5.0246 22.7665,0.8526" id="Fill-25"></path>
        </g>
        <path d="M16.9159,23.4004 C21.5119,23.4004 25.2369,19.6754 25.2369,15.0794 C25.2369,10.4824 21.5119,6.7574 16.9159,6.7574 C12.3199,6.7574 8.5949,10.4824 8.5949,15.0794 C8.5949,19.6754 12.3199,23.4004 16.9159,23.4004" id="Fill-28" fill="#FFFFFF"></path>
        <path d="M29.3514,29.7302 C28.6214,29.7302 28.0934,29.2082 28.0934,28.4752 C28.0934,27.7502 28.6214,27.2232 29.3514,27.2232 C30.0774,27.2232 30.6004,27.7502 30.6004,28.4752 C30.6004,29.2082 30.0774,29.7302 29.3514,29.7302 M29.3514,26.9862 C28.5274,26.9862 27.8564,27.6572 27.8564,28.4752 C27.8564,29.3002 28.5274,29.9682 29.3514,29.9682 C30.1714,29.9682 30.8384,29.3002 30.8384,28.4752 C30.8384,27.6572 30.1714,26.9862 29.3514,26.9862" id="Fill-30" fill="#3C6BC8"></path>
        <path d="M29.3114,28.3613 L29.0084,28.3613 L29.0084,27.8123 L29.4794,27.8123 C29.6834,27.8123 29.8834,27.8423 29.8834,28.0823 C29.8834,28.4023 29.5494,28.3613 29.3114,28.3613 M30.1214,28.0863 C30.1214,27.7803 29.9704,27.6123 29.5264,27.6123 L28.7924,27.6123 L28.7924,29.3193 L29.0084,29.3193 L29.0084,28.5613 L29.3734,28.5613 L29.8544,29.3193 L30.1014,29.3193 L29.5934,28.5613 C29.8904,28.5363 30.1214,28.4123 30.1214,28.0863" id="Fill-32" fill="#3C6BC8"></path>
        <path d="M16.8907,17.2706 L14.1207,21.5116 C15.0027,21.9066 15.9797,22.1236 17.0077,22.1236 C18.0347,22.1236 19.0107,21.9066 19.8937,21.5116 L17.1227,17.2706 C17.0897,17.2266 17.0477,17.2066 17.0077,17.2066 C16.9637,17.2066 16.9217,17.2266 16.8907,17.2706 Z" id="Fill-34" fill="#005EB9"></path>
        <path d="M10.1137,13.3433 C9.9837,13.8833 9.9137,14.4513 9.9137,15.0273 C9.9137,16.7963 10.5577,18.4073 11.6237,19.6513 L14.5557,14.0533 C14.6257,13.8813 14.6017,13.7513 14.3007,13.7283 L10.1137,13.3433 Z" id="Fill-36" fill="#005EB9"></path>
        <path d="M11.617,10.4187 L15.322,10.4187 C15.389,10.4017 15.426,10.3217 15.349,10.2497 C14.956,9.8197 14.619,8.9087 15.036,8.2147 C13.687,8.6017 12.504,9.3817 11.617,10.4187 Z" id="Fill-38" fill="#005EB9"></path>
        <path d="M22.3983,10.4187 C21.5103,9.3817 20.3273,8.6017 18.9783,8.2147 C19.3963,8.9087 19.0563,9.8187 18.6613,10.2487 C18.5893,10.3217 18.6253,10.4017 18.6913,10.4187 L22.3983,10.4187 Z" id="Fill-40" fill="#005EB9"></path>
        <path d="M19.7118,13.7283 C19.4108,13.7513 19.3878,13.8813 19.4558,14.0533 L22.3888,19.6513 C23.4558,18.4073 24.1008,16.7963 24.1008,15.0273 C24.1008,14.4513 24.0318,13.8833 23.8988,13.3433 L19.7118,13.7283 Z" id="Fill-42" fill="#005EB9"></path>
        <path d="M22.0887,21.5115 L22.0927,21.5225 L18.3067,14.4145 C18.0307,13.8095 18.1527,12.8055 19.1907,12.6605 L24.7177,12.1255 L24.7187,12.1255 L24.7177,12.1255 C25.0587,13.0285 25.2417,14.0095 25.2417,15.0325 C25.2417,17.6605 24.0107,20.0045 22.0887,21.5115 L22.0887,21.5115 Z M21.5377,21.9195 L21.5327,21.9135 C20.2347,22.7695 18.6787,23.2665 17.0077,23.2665 C15.3327,23.2665 13.7787,22.7695 12.4807,21.9135 L12.4767,21.9195 L12.4767,21.9125 L12.4807,21.9135 L16.4927,15.9155 C16.7897,15.4975 17.2377,15.5305 17.5217,15.9155 L21.5327,21.9135 C21.5347,21.9135 21.5347,21.9125 21.5377,21.9125 L21.5377,21.9195 Z M8.7717,15.0325 C8.7717,14.0095 8.9557,13.0285 9.2967,12.1255 L9.2957,12.1255 L9.2967,12.1255 L14.8207,12.6605 C15.8597,12.8055 15.9797,13.8095 15.7057,14.4145 L11.9187,21.5225 L11.9247,21.5115 C10.0037,20.0045 8.7717,17.6605 8.7717,15.0325 L8.7717,15.0325 Z M17.0077,6.7925 C20.3097,6.7925 23.1597,8.7365 24.4727,11.5475 L18.6097,11.5475 C17.7737,11.5265 17.4037,11.0375 17.3877,10.6395 C17.3667,10.1685 17.4417,10.0155 17.8327,9.5135 C18.2557,8.9495 17.9637,7.8615 17.0077,7.8445 C16.0497,7.8615 15.7567,8.9495 16.1827,9.5135 C16.5697,10.0155 16.6457,10.1685 16.6257,10.6395 C16.6097,11.0375 16.2407,11.5265 15.4027,11.5475 L9.5407,11.5475 C10.8537,8.7365 13.7027,6.7925 17.0077,6.7925 L17.0077,6.7925 Z M23.6277,8.3395 L23.6277,0.0005 L10.3377,0.0005 L10.3377,8.3395 L1.9997,8.3395 L1.9997,21.6735 L10.3377,21.6735 L10.3377,30.0125 L23.6277,30.0125 L23.6277,21.6735 L31.9657,21.6735 L31.9657,8.3395 L23.6277,8.3395 Z" id="Fill-44" fill="#005EB9"></path>
        <path d="M57.9276,29.7409 C57.2126,29.7409 56.6936,29.2289 56.6936,28.5079 C56.6936,27.7949 57.2126,27.2819 57.9276,27.2819 C58.6406,27.2819 59.1526,27.7949 59.1526,28.5079 C59.1526,29.2289 58.6406,29.7409 57.9276,29.7409 M57.9276,27.0519 C57.1186,27.0519 56.4616,27.7049 56.4616,28.5079 C56.4616,29.3189 57.1186,29.9749 57.9276,29.9749 C58.7336,29.9749 59.3876,29.3189 59.3876,28.5079 C59.3876,27.7049 58.7336,27.0519 57.9276,27.0519" id="Fill-47" fill="#3C6BC8"></path>
        <path d="M57.8885,28.3966 L57.5925,28.3966 L57.5925,27.8596 L58.0515,27.8596 C58.2545,27.8596 58.4495,27.8906 58.4495,28.1246 C58.4495,28.4376 58.1235,28.3966 57.8885,28.3966 M58.6825,28.1256 C58.6825,27.8266 58.5355,27.6646 58.0995,27.6646 L57.3775,27.6646 L57.3775,29.3366 L57.5925,29.3366 L57.5925,28.5956 L57.9515,28.5956 L58.4215,29.3366 L58.6625,29.3366 L58.1635,28.5956 C58.4565,28.5696 58.6825,28.4476 58.6825,28.1256" id="Fill-49" fill="#3C6BC8"></path>
        <path d="M57.2596,15.9606 C55.6736,20.6116 53.1976,24.7376 48.5506,27.6176 C48.5536,27.6176 48.5556,27.6176 48.5576,27.6206 L48.5486,27.6206 C48.5486,27.6206 48.5496,27.6176 48.5506,27.6176 C43.9056,24.7376 41.4316,20.6116 39.8456,15.9606 C38.4366,11.8226 38.0916,6.9796 39.6406,3.2046 C41.9626,4.0016 43.3246,4.2476 44.5896,4.4436 C45.7696,4.6286 46.8206,4.7416 48.5486,4.7636 L48.5576,4.7636 C50.2816,4.7416 51.3346,4.6286 52.5146,4.4436 C53.7786,4.2476 55.1406,4.0016 57.4636,3.2046 C59.0106,6.9796 58.6676,11.8226 57.2596,15.9606 M58.7676,0.0156 C55.5406,1.6436 52.3236,2.5166 48.5506,2.5296 C44.7796,2.5386 41.5616,1.6266 38.3366,0.0006 C36.2146,4.1696 35.8836,10.9456 37.7136,16.6056 C39.4796,22.0586 42.9036,27.0246 48.5506,30.1466 C54.2016,27.0246 57.6246,22.0586 59.3896,16.6056 C61.2216,10.9456 60.8846,4.1876 58.7676,0.0156" id="Fill-51" fill="#005EB9"></path>
        <path d="M47.0018,8.1568 C47.1588,8.2708 47.1278,8.4668 47.3548,8.4288 C47.4698,8.4098 47.5408,8.3368 47.6438,8.2628 C47.6578,8.2528 47.7768,8.2708 47.8098,8.2828 C47.5608,8.0278 47.0598,8.0278 46.7298,8.0168 C46.8138,8.1788 46.9038,8.0908 47.0018,8.1568" id="Fill-53" fill="#3C6BC8"></path>
        <polygon id="Fill-55" fill="#3C6BC8" points="48.5487 26.4767 48.5527 26.4767 48.5547 26.4767"></polygon>
        <path d="M51.8856,8.6754 C51.8156,8.9074 51.7586,8.9044 51.6096,9.0464 C51.2926,9.3324 50.8726,9.6294 50.4636,10.0214 C50.2006,10.2714 49.9486,10.4184 49.7636,10.7214 C49.7186,10.7894 49.6236,10.9774 49.6236,10.9774 C48.9246,10.8374 48.2146,10.8224 47.6696,10.7134 L47.6446,10.1174 C47.6446,10.1174 48.3426,10.1084 48.4116,9.6884 C48.4126,9.6664 48.3996,9.5414 48.3206,9.4804 C48.2246,9.4094 48.0166,9.3324 47.9646,9.3154 C48.4946,9.3984 48.9596,9.5934 49.5036,9.8284 C49.5366,9.7744 49.4486,9.5694 49.4066,9.5264 C49.3316,9.4404 49.2456,9.3774 49.0586,9.3324 C48.7276,9.2454 47.9316,9.1484 47.9316,9.1484 C47.9316,9.1484 48.2186,9.1374 48.6046,9.1244 C48.7726,9.0944 48.9476,9.0274 48.9836,8.9734 C49.0226,8.8874 48.9706,8.7554 48.8526,8.6294 C48.7746,8.5464 48.6946,8.4674 48.6296,8.3804 C48.5486,8.2674 48.4446,8.0554 48.3016,7.9264 C48.1236,7.7174 47.5896,7.5134 47.5896,7.5134 C47.5896,7.5134 47.5466,7.1594 47.6336,6.9834 C47.6986,6.8554 47.9856,6.8414 48.0746,6.8844 C48.4736,7.1074 48.9246,7.3514 49.4586,7.4474 C49.5706,7.5284 49.5736,7.5534 49.6086,7.7174 C49.6836,8.0734 49.5436,8.5994 49.6166,8.8474 C49.6526,8.9274 49.7326,8.9254 49.7926,8.8894 C50.2896,8.6234 50.6256,8.1614 51.1296,7.9474 C51.3646,7.8464 52.0366,8.1864 51.8856,8.6754 L51.8856,8.6754 Z M49.6776,15.5054 C49.6776,15.5054 49.7396,14.4504 49.7466,13.9424 C50.0276,13.8304 50.0886,13.5564 49.9836,13.3314 C49.9246,13.2044 49.7116,13.1174 49.5896,13.0864 C49.0096,12.9404 48.4776,12.9104 47.8776,12.8464 C47.3536,12.7904 46.9376,12.7224 46.4536,12.5954 C45.4676,12.3454 44.6316,11.8874 44.1956,10.9904 C43.6536,9.8824 44.1366,8.5024 45.2006,7.9494 C46.0076,7.5284 46.9146,7.6084 47.7256,7.9184 C48.0086,8.0294 48.1596,8.2734 48.3336,8.5114 C48.4126,8.6184 48.5316,8.6624 48.6006,8.7804 C48.6396,8.8474 48.5486,8.8794 48.5106,8.8894 C48.3326,8.9384 47.7376,8.9464 47.5396,8.9224 C47.2986,8.8944 46.8916,8.9044 46.6496,8.9554 C46.9046,9.0994 47.1796,9.2774 47.4326,9.3774 C47.5886,9.4344 47.7096,9.4344 47.8516,9.5064 C47.9096,9.5384 48.0786,9.5854 48.0786,9.6634 C48.0606,9.7414 47.9206,9.7744 47.8186,9.8044 C47.5876,9.8704 47.2716,9.8814 46.9796,9.8124 C46.5156,9.7064 46.2986,9.4324 46.0106,9.6004 C45.8186,9.7174 45.8156,9.9754 45.8776,10.2404 C45.9806,10.6494 46.4106,10.8224 46.7766,10.9444 C48.0436,11.3514 49.3956,11.1194 50.6326,11.7564 C51.1126,12.0034 51.6526,12.5014 51.7536,13.0344 C52.1746,15.2434 49.6776,15.5054 49.6776,15.5054 L49.6776,15.5054 Z M47.6796,13.2944 C47.6796,13.2944 47.9296,13.3214 48.5376,13.3634 C49.0046,13.3944 49.3206,13.5264 49.3206,13.5264 L49.2596,15.7494 C48.7616,15.6564 48.4386,15.6004 47.9766,15.5414 C47.8236,14.7364 47.6286,14.4594 47.3056,13.8664 C47.2326,13.7334 47.2956,13.6814 47.3166,13.6484 C47.3606,13.5644 47.6856,13.4864 47.6856,13.4864 L47.6796,13.2944 Z M51.0636,18.1464 C50.9796,18.5084 50.7456,18.7944 50.3676,19.0244 C49.9706,19.2614 49.5556,19.2794 49.5556,19.2794 L49.5906,18.0584 C49.5906,18.0584 49.6826,18.0374 49.7466,17.9594 C49.8096,17.8814 49.8256,17.8284 49.8096,17.7224 C49.7976,17.6524 49.7416,17.5604 49.6326,17.5114 C49.5126,17.4604 49.3256,17.4414 49.2496,17.4354 C48.6466,17.3614 48.0916,17.2954 47.5036,17.1984 C46.4376,17.0254 45.6826,16.4114 45.7466,15.3934 C45.7916,14.7114 46.5076,14.4984 47.0146,14.2844 C47.1806,14.5804 47.3296,14.8934 47.3906,15.0534 C47.4866,15.3294 47.5386,15.5054 47.5386,15.5054 C47.5386,15.5054 47.3096,15.5454 47.3276,15.7324 C47.3476,15.8984 47.5316,15.9684 47.6446,15.9874 C48.3896,16.0894 49.3816,16.2134 49.9066,16.3914 C50.2566,16.5124 50.5996,16.7094 50.7956,16.9804 C51.0926,17.3894 51.1596,17.7224 51.0636,18.1464 L51.0636,18.1464 Z M48.1216,17.7054 C48.6066,17.7634 48.7856,17.7774 49.1976,17.8284 L49.1566,19.8444 L48.6886,19.5904 L48.2226,19.3684 L48.1216,17.7054 Z M49.9976,22.4914 C49.7346,22.7114 49.4176,22.7854 49.4176,22.7854 L49.4506,21.9224 C49.4506,21.9224 49.5456,21.8354 49.5206,21.7304 C49.4756,21.5554 48.8626,21.1454 48.5316,21.0184 C48.1976,20.8904 47.7506,20.7594 47.4326,20.6214 C46.6906,20.2984 46.4226,19.6484 46.7246,18.9394 C46.8326,18.6774 47.1306,18.4994 47.2936,18.4024 C47.4726,18.3014 47.7306,18.2194 47.7306,18.2194 L47.8066,19.2294 C47.8066,19.2294 47.7096,19.2634 47.6816,19.3544 C47.6256,19.5304 47.7866,19.6334 47.8306,19.6484 C48.3156,19.8644 49.0226,20.1494 49.5366,20.4514 C50.2036,20.8394 50.4226,21.1254 50.4256041,21.5944 C50.4266,22.0184 50.2456,22.2874 49.9976,22.4914 L49.9976,22.4914 Z M49.0526,24.6784 C49.0506,24.8374 48.9886,24.9604 48.6886,24.9664 C48.4376,24.9714 48.3286,24.8834 48.3186,24.6204 C48.2776,23.4634 48.2276,21.2844 48.2276,21.2844 C48.2276,21.2844 48.5526,21.3854 48.7076,21.4764 C48.7556,21.5044 48.9276,21.6114 49.0746,21.7654 C49.1066,21.8134 49.1296,21.8234 49.1276,21.8924 C49.1096,22.7384 49.0566,24.3034 49.0526,24.6784 L49.0526,24.6784 Z M47.7666,23.7184 C47.7226,24.0234 47.8486,24.1534 47.8186,24.2974 C47.7666,24.5304 47.6176,24.4614 47.5316,24.2874 C47.4086,24.0534 47.3276,23.9384 47.2936,23.5804 C47.2396,23.0134 47.5226,22.7434 47.6516,22.6124 C47.7916,22.4724 47.9216,22.4034 47.9216,22.4034 L47.9646,23.3554 C47.9646,23.3554 47.8096,23.4134 47.7666,23.7184 L47.7666,23.7184 Z M52.5846,5.5284 C51.2286,5.7094 49.8816,5.8444 48.5576,5.8554 L48.5486,5.8554 C47.2216,5.8444 45.8776,5.7094 44.5196,5.5284 C43.1606,5.3414 41.8456,5.0334 40.4386,4.6584 C39.4526,7.4514 39.6616,10.9714 40.4216,14.1064 C41.8446,20.0104 45.4076,24.4974 48.5526,26.4744 C51.6956,24.4974 55.2606,20.0104 56.6826,14.1064 C57.4406,10.9714 57.6506,7.4514 56.6636,4.6584 C55.2566,5.0334 53.9426,5.3414 52.5846,5.5284 L52.5846,5.5284 Z" id="Fill-57" fill="#005EB9"></path>
    </g>
</svg>